# Blender 3.3.1
# www.blender.org
mtllib guide.mtl
o Cube
v 0.000000 0.400000 -1.935589
v 0.000000 -0.400000 -1.935589
v 1.500000 0.400000 0.064411
v 1.500000 -0.400000 0.064411
v -1.565434 0.400000 0.064411
v -1.565434 -0.400000 0.064411
v -1.560511 -0.386484 1.161368
v -1.560511 0.388164 1.161368
v -1.560511 -0.386484 0.658416
v -1.560511 0.388164 0.658416
v 1.469780 -0.386484 1.161368
v 1.469780 0.388164 1.161368
v 1.469780 -0.386484 0.658416
v 1.469780 0.388164 0.658416
vn -0.0000 1.0000 -0.0000
vn -0.0000 -0.0000 1.0000
vn -0.7875 -0.0000 -0.6164
vn -0.0000 -1.0000 -0.0000
vn 0.8000 -0.0000 -0.6000
vn -1.0000 -0.0000 -0.0000
vn -0.0000 -0.0000 -1.0000
vn 1.0000 -0.0000 -0.0000
vt 0.728299 0.000000
vt 0.585636 0.419069
vt 0.000000 0.835800
vt 0.717637 0.419069
vt 0.000000 0.247501
vt 0.132001 0.835800
vt 0.330001 0.107314
vt 0.728299 0.505799
vt 0.000000 0.505799
vt 0.860300 0.505799
vt 0.330001 0.000000
vt 0.132001 0.505799
vt 0.728299 0.419069
vt 0.728299 0.000000
vt 0.585636 0.749070
vt 0.860300 0.000000
vt 0.717637 0.749070
vt 0.330001 0.505799
vt 0.214988 0.505799
vt 0.585636 0.419069
vt 0.943287 0.500000
vt 0.214988 0.633616
vt 0.457819 0.419069
vt 0.943287 0.500000
vt 0.132001 0.505799
vt 0.457819 0.919069
vt 0.860300 0.500000
vt 0.132001 0.633616
vt 0.330001 0.919069
vt 0.860300 0.500000
vt 0.214988 0.505799
vt 0.585636 0.919069
vt 0.943287 0.000000
vt 0.214988 0.633616
vt 0.457819 0.919069
vt 0.943287 1.000000
vt 0.457819 0.419069
vt 0.297975 0.505799
vt 0.860300 0.000000
vt 0.330001 0.419069
vt 0.297975 0.633616
vt 0.860300 1.000000
s 0
usemtl Material
f 1/1/1 5/13/1 3/7/1
f 4/10/2 3/8/2 5/14/2 6/16/2
f 6/17/3 5/15/3 1/2/3 2/4/3
f 2/5/4 4/11/4 6/18/4
f 2/6/5 1/3/5 3/9/5 4/12/5
f 7/19/6 8/22/6 10/28/6 9/25/6
f 9/26/7 10/29/7 14/40/7 13/37/7
f 13/38/8 14/41/8 12/34/8 11/31/8
f 11/32/2 12/35/2 8/23/2 7/20/2
f 9/27/4 13/39/4 11/33/4 7/21/4
f 14/42/1 10/30/1 8/24/1 12/36/1
