# Blender 3.3.1
# www.blender.org
mtllib Foundation.mtl
o Cube
v 8.000000 1.700000 -8.000000
v 8.000000 -1.700000 -8.000000
v 8.000000 1.700000 8.000000
v 8.000000 -1.700000 8.000000
v -8.000000 1.700000 -8.000000
v -8.000000 -1.700000 -8.000000
v -8.000000 1.700000 8.000000
v -8.000000 -1.700000 8.000000
v 6.425632 1.736636 -6.425632
v 6.425632 1.736636 6.425632
v -6.425632 1.736636 -6.425632
v -6.425632 1.736636 6.425632
v 6.425632 2.292629 6.425632
v 6.425632 2.292629 -6.425632
v -6.425632 2.292629 -6.425632
v -6.425632 2.292629 6.425632
vn -0.0000 1.0000 -0.0000
vn -0.0000 -0.0000 1.0000
vn -1.0000 -0.0000 -0.0000
vn -0.0000 -1.0000 -0.0000
vn 1.0000 -0.0000 -0.0000
vn -0.0000 -0.0000 -1.0000
vn -0.0000 0.9997 -0.0233
vn -0.0233 0.9997 -0.0000
vn -0.0000 0.9997 0.0233
vn 0.0233 0.9997 -0.0000
vt 0.339518 0.332682
vt 0.000000 0.334961
vt 0.003486 0.000000
vt 0.337565 0.000000
vt 0.339518 -0.000651
vt 0.000000 0.001628
vt 0.333333 0.333333
vt 0.006185 0.332682
vt 0.003486 0.333333
vt 0.333333 0.000000
vt 0.337565 0.333333
vt 0.006185 -0.000651
vt 0.000000 0.332682
vt 0.333333 0.334961
vt 0.336819 0.000000
vt 0.000000 -0.000651
vt 0.004232 0.000000
vt 0.333333 0.001628
vt 0.000000 0.333333
vt 0.333333 0.332682
vt 0.336819 0.333333
vt 0.000000 0.000000
vt 0.333333 -0.000651
vt 0.004232 0.333333
vt 0.818190 0.597005
vt 0.885858 0.868803
vt 0.883107 0.601068
vt 0.036285 0.032799
vt 0.818190 0.864740
vt 0.885858 0.601068
vt 0.885238 0.868803
vt 0.036285 0.300534
vt 0.550456 0.597005
vt 0.884703 0.601068
vt 0.883107 0.868803
vt 0.304020 0.032799
vt 0.550456 0.864740
vt 0.884703 0.868803
vt 0.885238 0.601068
vt 0.304020 0.300534
vt 0.557943 0.867995
vt 0.831349 0.601068
vt 0.830729 0.868803
vt 0.557943 0.600260
vt 0.831349 0.868803
vt 0.828598 0.601068
vt 0.825677 0.600260
vt 0.830194 0.601068
vt 0.828598 0.868803
vt 0.825677 0.867995
vt 0.830194 0.868803
vt 0.830729 0.601068
s 0
usemtl Material
f 13/41/1 14/44/1 15/47/1 16/50/1
f 4/10/2 3/7/2 7/19/2 8/22/2
f 8/23/3 7/20/3 5/13/3 6/16/3
f 6/17/4 2/4/4 4/11/4 8/24/4
f 2/5/5 1/1/5 3/8/5 4/12/5
f 6/18/6 5/14/6 1/2/6 2/6/6
f 10/29/4 12/37/4 11/33/4 9/25/4
f 11/34/3 12/38/3 16/51/3 15/48/3
f 10/30/5 9/26/5 14/45/5 13/42/5
f 12/39/2 10/31/2 13/43/2 16/52/2
f 9/27/6 11/35/6 15/49/6 14/46/6
f 5/15/7 11/36/7 9/28/7 1/3/7
f 7/21/8 12/40/8 11/36/8 5/15/8
f 3/9/9 10/32/9 12/40/9 7/21/9
f 1/3/10 9/28/10 10/32/10 3/9/10
