# Blender 3.3.1
# www.blender.org
mtllib GroundCave.mtl
o 平面_平面.005
v -4.202020 -0.000000 4.559437
v 2.130863 0.000000 9.162792
v 4.202019 -0.000001 4.559437
v 4.202019 -0.000000 13.610991
v -0.287510 0.000000 6.208292
v 4.202019 -0.000000 9.085214
v 0.676131 0.000000 7.047852
v -0.000001 -0.000001 4.559437
v 3.352382 0.000000 11.525499
v -2.140763 -0.000000 5.252444
v 4.202019 -0.000000 11.348103
v 1.419110 0.000000 7.961741
v 2.101009 -0.000001 4.559437
v 3.816407 0.000000 12.568245
v -1.158969 -0.000000 5.738520
v 4.202019 -0.000001 6.822326
v 0.159532 0.000000 6.524477
v -2.101010 -0.000000 4.559437
v 2.676262 0.000000 10.253265
v -3.271653 -0.000000 4.840470
vn -0.0000 1.0000 -0.0000
vt 0.000000 0.000000
vt 1.000000 0.000000
vt 0.000000 1.000000
vt 1.000000 1.000000
vt 0.500000 0.000000
vt 0.500000 1.000000
vt 0.750000 0.000000
vt 0.000000 0.500000
vt 1.000000 0.500000
vt 0.250000 0.000000
vt 0.750000 1.000000
vt 0.875000 0.000000
vt 0.000000 0.750000
vt 1.000000 0.750000
vt 0.375000 0.000000
vt 0.250000 1.000000
vt 0.625000 0.000000
vt 0.000000 0.250000
vt 1.000000 0.250000
vt 0.125000 0.000000
s 0
usemtl マテリアル.007
f 16/16/1 12/12/1 2/2/1
f 18/18/1 1/1/1 20/20/1
f 18/18/1 20/20/1 10/10/1
f 3/3/1 13/13/1 16/16/1
f 13/13/1 8/8/1 17/17/1
f 16/16/1 13/13/1 7/7/1
f 8/8/1 18/18/1 15/15/1
f 18/18/1 10/10/1 15/15/1
f 4/4/1 11/11/1 14/14/1
f 11/11/1 6/6/1 19/19/1
f 14/14/1 11/11/1 9/9/1
f 6/6/1 16/16/1 2/2/1
f 13/13/1 17/17/1 7/7/1
f 8/8/1 15/15/1 5/5/1
f 8/8/1 5/5/1 17/17/1
f 9/9/1 11/11/1 19/19/1
f 2/2/1 19/19/1 6/6/1
f 16/16/1 7/7/1 12/12/1
