# Blender v2.92.0 OBJ File: 'Block.blend'
# www.blender.org
mtllib Block.mtl
o Cube.001
v 1.000000 1.000000 -1.000000
v 1.000000 -1.000000 -1.000000
v 1.000000 1.000000 1.000000
v 1.000000 -1.000000 1.000000
v -1.000000 1.000000 -1.000000
v -0.995883 -1.000000 -1.000000
v -1.000000 1.000000 1.000000
v -1.000000 -1.000000 1.000000
v 1.000000 -0.781048 0.827294
v 1.000000 0.831675 0.826463
v 1.000000 0.829005 -0.782223
v 1.000000 -0.848816 -0.863139
v 1.000000 0.751377 -0.842061
v 1.000000 -0.850735 0.761783
v -0.792722 0.845184 1.000000
v 0.846773 0.850788 1.000000
v 0.857670 -0.778055 1.000000
v 0.764490 -0.843707 1.000000
v -0.832425 -0.839898 1.000000
v -0.838108 0.753957 1.000000
v -1.000000 -0.848804 -0.806128
v -1.000000 0.783880 0.842087
v -1.000000 -0.843418 0.842548
v -1.000000 0.840403 0.757536
v -1.000000 0.851936 -0.845482
v -1.000000 -0.747126 -0.838883
v 0.766845 0.840359 -1.000000
v -0.835279 0.839065 -1.000000
v -0.847537 -0.753993 -1.000000
v -0.771627 -0.840704 -1.000000
v 0.850299 -0.847621 -1.000000
v 0.840492 0.767136 -1.000000
v -0.711932 1.000000 0.810890
v 0.836295 1.000000 0.823403
v 0.846790 1.000000 -0.748065
v 0.775615 1.000000 -0.830852
v -0.847471 1.000000 -0.831421
v -0.838011 1.000000 0.771657
v 0.830718 -1.000000 0.788807
v 0.837436 -1.000000 -0.829278
v -0.752565 -1.000000 -0.833028
v 0.741875 -1.000000 0.844440
v -0.853528 -1.000000 0.831056
v -0.850549 -1.000000 -0.782207
v 0.775615 0.917352 -0.830852
v -0.847471 0.917352 -0.831421
v -0.838011 0.917352 0.771657
v -0.711932 0.917352 0.810890
v 0.836295 0.917352 0.823403
v 0.846790 0.917352 -0.748065
v 0.889235 -0.781048 0.827294
v 0.889235 0.831675 0.826463
v 0.889235 0.829005 -0.782223
v 0.889235 -0.848816 -0.863139
v 0.889235 0.751377 -0.842061
v 0.889235 -0.850735 0.761783
v 0.766845 0.840359 -0.874158
v -0.835279 0.839065 -0.874158
v -0.847537 -0.753993 -0.874158
v -0.771627 -0.840704 -0.874158
v 0.850299 -0.847621 -0.874158
v 0.840492 0.767136 -0.874158
v -0.923955 0.840403 0.757536
v -0.923955 0.851936 -0.845482
v -0.923955 -0.747126 -0.838883
v -0.923955 -0.848804 -0.806128
v -0.923955 0.783880 0.842087
v -0.923955 -0.843418 0.842548
v 0.830718 -0.904256 0.788807
v 0.837436 -0.904256 -0.829278
v -0.752565 -0.904256 -0.833028
v 0.741875 -0.904256 0.844440
v -0.853528 -0.904256 0.831056
v -0.850549 -0.904256 -0.782207
v -0.792722 0.845184 0.910468
v 0.846773 0.850788 0.910468
v 0.857670 -0.778055 0.910468
v 0.764490 -0.843707 0.910468
v -0.832425 -0.839898 0.910468
v -0.838108 0.753957 0.910468
vt 0.680975 0.215867
vt 0.689367 0.206106
vt 0.707431 0.235810
vt 0.018428 0.499389
vt 0.018877 0.687673
vt 0.000000 0.707431
vt 0.265626 0.216814
vt 0.471621 0.235811
vt 0.235810 0.235810
vt 0.235810 0.235810
vt 0.029174 0.255497
vt 0.000000 0.235810
vt 0.218211 0.028087
vt 0.209995 0.020363
vt 0.235810 0.000000
vt 0.707431 0.471621
vt 0.499111 0.452799
vt 0.688009 0.452646
vt 0.000000 0.000000
vt 0.019846 0.020461
vt 0.261084 0.614868
vt 0.274144 0.804584
vt 0.261084 0.804594
vt 0.029314 0.217189
vt 0.000000 0.235810
vt 0.020161 0.210133
vt 0.246247 0.423641
vt 0.259306 0.615228
vt 0.246247 0.615228
vt 0.235810 0.471621
vt 0.217557 0.682992
vt 0.218217 0.489687
vt 0.900236 0.471624
vt 0.910792 0.666352
vt 0.900236 0.666355
vt 0.206801 0.688343
vt 0.026169 0.488402
vt 0.908392 0.000006
vt 0.918949 0.188866
vt 0.908392 0.188873
vt 0.926311 0.740074
vt 0.935277 0.934462
vt 0.926311 0.934462
vt 0.253637 0.212952
vt 0.235810 0.000000
vt 0.254272 0.018564
vt 0.452803 0.028588
vt 0.471621 0.000000
vt 0.565986 0.932834
vt 0.557020 0.744558
vt 0.565986 0.744565
vt 0.290759 0.235811
vt 0.305596 0.426019
vt 0.290759 0.426016
vt 0.471621 0.471621
vt 0.490427 0.444165
vt 0.290759 0.425986
vt 0.275921 0.235811
vt 0.290759 0.235820
vt 0.680504 0.254592
vt 0.471621 0.235811
vt 0.707431 0.235811
vt 0.511411 0.928284
vt 0.501666 0.744563
vt 0.511411 0.744558
vt 0.688129 0.020822
vt 0.707431 0.000000
vt 0.490720 0.026923
vt 0.505585 0.022297
vt 0.246247 0.617091
vt 0.236502 0.427181
vt 0.246247 0.427182
vt 0.211818 0.707431
vt 0.223107 0.898743
vt 0.211818 0.898738
vt 0.017621 0.261489
vt 0.000000 0.471621
vt 0.205376 0.453280
vt 0.235810 0.471621
vt 0.200529 0.707431
vt 0.211818 0.899011
vt 0.200529 0.898996
vt 0.282606 0.700714
vt 0.470424 0.509347
vt 0.471621 0.700714
vt 0.491922 0.933570
vt 0.482177 0.744558
vt 0.491922 0.744558
vt 0.246247 0.427181
vt 0.236502 0.235811
vt 0.246247 0.235811
vt 0.926311 0.740074
vt 0.926311 1.000000
vt 0.796180 0.871975
vt 0.501666 0.929844
vt 0.491922 0.744558
vt 0.501666 0.744558
vt 0.521156 0.927105
vt 0.511411 0.744558
vt 0.521156 0.744558
vt 0.707431 0.190148
vt 0.707649 0.000000
vt 0.897104 0.190148
vt 0.259306 0.804900
vt 0.246247 0.615228
vt 0.259306 0.615228
vt 0.261084 0.424709
vt 0.274144 0.614858
vt 0.261084 0.614858
vt 0.282606 0.892287
vt 0.468996 0.700714
vt 0.471294 0.892287
vt 0.875887 0.471627
vt 0.888947 0.660839
vt 0.875887 0.660845
vt 0.187470 0.707431
vt 0.200529 0.896105
vt 0.187470 0.896105
vt 0.875887 0.739143
vt 0.743261 0.606131
vt 0.875887 0.471621
vt 0.261084 0.423641
vt 0.246247 0.235811
vt 0.261084 0.235811
vt 0.275921 0.424710
vt 0.261084 0.235811
vt 0.275921 0.235811
vt 0.743261 0.471621
vt 0.743261 0.740074
vt 0.607641 0.606447
vt 0.320434 0.426201
vt 0.305596 0.235811
vt 0.320434 0.235811
vt 0.335271 0.427045
vt 0.320434 0.235811
vt 0.335271 0.235811
vt 0.796180 0.929071
vt 0.607641 0.929071
vt 0.794040 0.740074
vt 0.557020 0.933095
vt 0.548054 0.744558
vt 0.557020 0.744558
vt 0.539088 0.744558
vt 0.548054 0.933563
vt 0.539088 0.933563
vt 0.335271 0.370798
vt 0.471621 0.235811
vt 0.471621 0.509347
vt 0.539088 0.936425
vt 0.530122 0.744558
vt 0.539088 0.744558
vt 0.521156 0.744558
vt 0.530122 0.938777
vt 0.521156 0.938773
vt 0.000000 0.707767
vt 0.187470 0.707431
vt 0.187470 0.898214
vt 0.897104 0.000000
vt 0.908392 0.187470
vt 0.897104 0.187470
vt 0.223107 0.707431
vt 0.234396 0.898213
vt 0.223107 0.898213
vt 0.707431 0.325825
vt 0.840745 0.190148
vt 0.840745 0.458542
vt 0.245685 0.897643
vt 0.234396 0.707431
vt 0.245685 0.707431
vt 0.888947 0.471621
vt 0.900236 0.659730
vt 0.888947 0.659730
vt 0.471621 0.608974
vt 0.607641 0.471621
vt 0.607641 0.744558
vt 0.921348 0.471621
vt 0.931905 0.663672
vt 0.921348 0.663672
vt 0.910792 0.471621
vt 0.921348 0.664926
vt 0.910792 0.664926
vt 0.973359 0.456960
vt 0.840745 0.323808
vt 0.973359 0.190148
vt 0.471621 0.744558
vt 0.482177 0.932482
vt 0.471621 0.932482
vt 0.929505 0.188285
vt 0.918949 0.000000
vt 0.929505 0.000000
vt 0.489605 0.215934
vt 0.000000 0.471621
vt 0.235810 0.707431
vt 0.446139 0.018619
vt 0.454163 0.217592
vt 0.216643 0.255939
vt 0.217985 0.219674
vt 0.689454 0.264816
vt 0.274144 0.614858
vt 0.259306 0.423641
vt 0.910792 0.471621
vt 0.918949 0.000000
vt 0.935277 0.740074
vt 0.557020 0.932828
vt 0.305596 0.235814
vt 0.489271 0.253777
vt 0.275921 0.425977
vt 0.501666 0.928289
vt 0.236502 0.617090
vt 0.223107 0.707436
vt 0.215851 0.446720
vt 0.017270 0.451701
vt 0.211818 0.707447
vt 0.482177 0.933570
vt 0.236502 0.427181
vt 0.491922 0.929844
vt 0.511411 0.927105
vt 0.246247 0.804900
vt 0.274144 0.424709
vt 0.888947 0.471621
vt 0.200529 0.707431
vt 0.246247 0.423641
vt 0.261084 0.424710
vt 0.305596 0.426200
vt 0.320434 0.427045
vt 0.548054 0.933095
vt 0.530122 0.936425
vt 0.530122 0.744562
vt 0.908392 0.000000
vt 0.234396 0.707431
vt 0.234396 0.897643
vt 0.900236 0.471621
vt 0.931905 0.471621
vt 0.921348 0.471621
vt 0.482177 0.744558
vt 0.918949 0.188285
vn 0.0000 1.0000 0.0000
vn 0.0000 0.0000 1.0000
vn -0.9997 -0.0021 -0.0223
vn 0.0000 -1.0000 -0.0000
vn 1.0000 0.0000 0.0000
vn 0.0000 0.0000 -1.0000
vn -0.0000 0.7070 0.7072
vn -0.0000 1.0000 0.0012
vn 0.7012 0.7129 0.0000
vn -0.7060 -0.7082 0.0000
vn 0.0000 1.0000 -0.0033
vn -1.0000 0.0000 0.0000
vn 0.0000 0.7091 -0.7051
vn -0.7027 0.7115 0.0000
vn 0.7062 -0.7080 0.0000
vn 0.7072 0.0000 0.7071
vn -0.7047 0.0000 -0.7095
vn 0.7156 0.0000 -0.6986
vn -0.7146 0.0000 0.6995
vn 1.0000 0.0000 -0.0059
vn -0.0004 0.0000 1.0000
vn -1.0000 0.0000 -0.0067
vn 0.0081 0.0000 -1.0000
vn 0.0000 -1.0000 0.0017
vn 0.0000 -0.0005 -1.0000
vn 0.0000 -0.7075 -0.7067
vn 0.0000 -0.0132 0.9999
vn 1.0000 -0.0077 0.0000
vn 0.0008 -1.0000 0.0000
vn -1.0000 -0.0061 0.0000
vn 0.0043 1.0000 0.0000
vn 0.0000 0.0041 1.0000
vn 0.0000 -1.0000 -0.0072
vn 0.0000 -0.0003 -1.0000
vn 0.0000 -0.7104 0.7038
vn -0.0024 0.0000 1.0000
vn -1.0000 0.0000 -0.0042
vn 1.0000 0.0000 0.0018
vn 0.0084 0.0000 -1.0000
vn -1.0000 -0.0067 0.0000
vn 0.0034 -1.0000 0.0000
vn 1.0000 0.0036 -0.0000
vn 0.0024 1.0000 0.0000
vn -0.9998 -0.0055 -0.0170
vn -0.9997 -0.0246 -0.0021
usemtl マテリアル
s off
f 36/1/1 35/2/1 1/3/1
f 18/4/2 19/5/2 8/6/2
f 26/7/3 5/8/3 6/9/3
f 2/10/4 41/11/4 6/12/4
f 14/13/5 9/14/5 4/15/5
f 5/16/6 27/17/6 28/18/6
f 3/19/5 9/14/5 10/20/5
f 11/21/7 51/22/7 9/23/7
f 13/24/5 1/25/5 11/26/5
f 12/27/8 56/28/8 14/29/8
f 3/30/2 15/31/2 16/32/2
f 17/33/9 75/34/9 15/35/9
f 20/36/2 17/37/2 15/31/2
f 20/38/10 78/39/10 18/40/10
f 23/41/11 66/42/11 21/43/11
f 21/44/12 8/45/12 23/46/12
f 5/8/12 24/47/12 7/48/12
f 24/49/13 65/50/13 26/51/13
f 29/52/14 57/53/14 27/54/14
f 27/17/6 1/55/6 32/56/6
f 32/57/15 60/58/15 30/59/15
f 30/60/6 2/61/6 6/62/6
f 33/63/16 50/64/16 35/65/16
f 34/66/1 3/67/1 35/2/1
f 38/68/1 7/48/1 33/69/1
f 36/70/17 47/71/17 38/72/17
f 41/73/18 69/74/18 39/75/18
f 44/76/4 8/77/4 6/12/4
f 8/77/4 42/78/4 4/79/4
f 42/80/19 74/81/19 44/82/19
f 47/83/1 45/84/1 46/85/1
f 38/86/20 46/87/20 37/88/20
f 37/89/21 45/90/21 36/91/21
f 50/92/1 48/93/1 49/94/1
f 35/95/22 49/96/22 34/97/22
f 34/98/23 48/99/23 33/100/23
f 52/101/5 51/102/5 53/103/5
f 10/104/24 53/105/24 11/106/24
f 9/107/25 52/108/25 10/109/25
f 55/110/5 56/111/5 54/112/5
f 14/113/26 55/114/26 13/115/26
f 13/116/27 54/117/27 12/118/27
f 59/119/6 58/120/6 57/121/6
f 28/122/28 59/123/28 29/124/28
f 27/125/29 58/126/29 28/127/29
f 60/128/6 62/129/6 61/130/6
f 31/131/30 62/132/30 32/133/30
f 30/134/31 61/135/31 31/136/31
f 64/137/12 65/138/12 63/139/12
f 26/140/32 64/141/32 25/142/32
f 25/143/33 63/144/33 24/145/33
f 68/146/12 67/147/12 66/148/12
f 22/149/34 68/150/34 23/151/34
f 21/152/35 67/153/35 22/154/35
f 71/155/4 70/156/4 69/157/4
f 40/158/36 71/159/36 41/160/36
f 39/161/37 70/162/37 40/163/37
f 73/164/4 74/165/4 72/166/4
f 44/167/38 73/168/38 43/169/38
f 43/170/39 72/171/39 42/172/39
f 76/173/2 75/174/2 77/175/2
f 16/176/40 77/177/40 17/178/40
f 15/179/41 76/180/41 16/181/41
f 80/182/2 79/183/2 78/184/2
f 19/185/42 80/186/42 20/187/42
f 18/188/43 79/189/43 19/190/43
f 1/3/1 5/8/1 36/1/1
f 5/8/1 37/191/1 36/1/1
f 4/192/2 17/37/2 18/4/2
f 19/5/2 20/36/2 8/6/2
f 20/36/2 7/193/2 8/6/2
f 4/192/2 18/4/2 8/6/2
f 23/46/12 8/45/12 22/194/12
f 8/45/12 7/48/12 22/194/12
f 7/48/12 24/47/12 22/194/12
f 24/47/12 26/7/12 22/194/12
f 26/7/12 25/195/12 5/8/12
f 6/9/44 21/44/44 26/7/44
f 21/44/12 22/194/12 26/7/12
f 2/10/4 40/196/4 41/11/4
f 4/15/5 2/10/5 14/13/5
f 2/10/5 12/197/5 14/13/5
f 29/198/6 6/62/6 5/16/6
f 5/16/6 1/55/6 27/17/6
f 28/18/6 29/198/6 5/16/6
f 3/19/5 4/15/5 9/14/5
f 10/20/5 11/26/5 3/19/5
f 11/26/5 1/25/5 3/19/5
f 11/21/7 53/199/7 51/22/7
f 11/26/5 9/14/5 13/24/5
f 9/14/5 14/13/5 13/24/5
f 13/24/5 12/197/5 2/10/5
f 13/24/5 2/10/5 1/25/5
f 12/27/8 54/200/8 56/28/8
f 3/30/2 7/193/2 15/31/2
f 16/32/2 17/37/2 3/30/2
f 17/37/2 4/192/2 3/30/2
f 17/33/9 77/201/9 75/34/9
f 15/31/2 7/193/2 20/36/2
f 20/36/2 18/4/2 17/37/2
f 20/38/10 80/202/10 78/39/10
f 23/41/11 68/203/11 66/42/11
f 21/44/45 6/9/45 8/45/45
f 5/8/12 25/195/12 24/47/12
f 24/49/13 63/204/13 65/50/13
f 29/52/14 59/205/14 57/53/14
f 30/60/6 29/198/6 32/56/6
f 29/198/6 27/17/6 32/56/6
f 1/55/6 2/61/6 32/56/6
f 2/61/6 31/206/6 32/56/6
f 32/57/15 62/207/15 60/58/15
f 30/60/6 31/206/6 2/61/6
f 6/62/6 29/198/6 30/60/6
f 33/63/16 48/208/16 50/64/16
f 34/66/1 33/69/1 3/67/1
f 33/69/1 7/48/1 3/67/1
f 3/67/1 1/3/1 35/2/1
f 33/69/1 35/2/1 36/1/1
f 38/68/1 37/191/1 5/8/1
f 33/69/1 36/1/1 38/68/1
f 38/68/1 5/8/1 7/48/1
f 36/70/17 45/209/17 47/71/17
f 41/73/18 71/210/18 69/74/18
f 39/211/4 40/196/4 2/10/4
f 4/79/4 42/78/4 39/211/4
f 42/78/4 44/76/4 41/11/4
f 39/211/4 42/78/4 41/11/4
f 44/76/4 43/212/4 8/77/4
f 6/12/4 41/11/4 44/76/4
f 39/211/4 2/10/4 4/79/4
f 8/77/4 43/212/4 42/78/4
f 42/80/19 72/213/19 74/81/19
f 38/86/20 47/214/20 46/87/20
f 37/89/21 46/215/21 45/90/21
f 35/95/22 50/216/22 49/96/22
f 34/98/23 49/217/23 48/99/23
f 10/104/24 52/218/24 53/105/24
f 9/107/25 51/219/25 52/108/25
f 14/113/26 56/220/26 55/114/26
f 13/116/27 55/221/27 54/117/27
f 28/122/28 58/222/28 59/123/28
f 27/125/29 57/223/29 58/126/29
f 31/131/30 61/224/30 62/132/30
f 30/134/31 60/225/31 61/135/31
f 26/140/32 65/226/32 64/141/32
f 25/143/33 64/141/33 63/144/33
f 22/149/34 67/227/34 68/150/34
f 21/152/35 66/228/35 67/153/35
f 40/158/36 70/229/36 71/159/36
f 39/161/37 69/230/37 70/162/37
f 44/167/38 74/231/38 73/168/38
f 43/170/39 73/232/39 72/171/39
f 16/176/40 76/233/40 77/177/40
f 15/179/41 75/234/41 76/180/41
f 19/185/42 79/235/42 80/186/42
f 18/188/43 78/236/43 79/189/43
