# Blender 3.3.1
# www.blender.org
mtllib bullet.mtl
o 円柱
v 0.000000 -0.652389 2.400048
v 0.000000 -0.652390 -2.400048
v 0.127275 -0.639854 2.400048
v 0.127275 -0.639854 -2.400048
v 0.249659 -0.602729 2.400048
v 0.249659 -0.602730 -2.400048
v 0.362448 -0.542442 2.400048
v 0.362448 -0.542442 -2.400048
v 0.461309 -0.461309 2.400048
v 0.461309 -0.461309 -2.400048
v 0.542442 -0.362448 2.400048
v 0.542442 -0.362448 -2.400048
v 0.602729 -0.249659 2.400048
v 0.602729 -0.249659 -2.400048
v 0.639854 -0.127275 2.400048
v 0.639854 -0.127275 -2.400048
v 0.652390 0.000000 2.400048
v 0.652390 -0.000000 -2.400048
v 0.639854 0.127275 2.400048
v 0.639854 0.127275 -2.400048
v 0.602729 0.249659 2.400048
v 0.602729 0.249659 -2.400048
v 0.542442 0.362448 2.400048
v 0.542442 0.362448 -2.400048
v 0.461309 0.461309 2.400048
v 0.461309 0.461309 -2.400048
v 0.362448 0.542442 2.400048
v 0.362448 0.542442 -2.400048
v 0.249659 0.602730 2.400048
v 0.249659 0.602729 -2.400048
v 0.127275 0.639854 2.400048
v 0.127275 0.639854 -2.400048
v 0.000000 0.652390 2.400048
v 0.000000 0.652389 -2.400048
v -0.127275 0.639854 2.400048
v -0.127275 0.639854 -2.400048
v -0.249659 0.602730 2.400048
v -0.249659 0.602729 -2.400048
v -0.362448 0.542442 2.400048
v -0.362448 0.542442 -2.400048
v -0.461309 0.461309 2.400048
v -0.461309 0.461309 -2.400048
v -0.542442 0.362448 2.400048
v -0.542442 0.362448 -2.400048
v -0.602729 0.249659 2.400048
v -0.602729 0.249659 -2.400048
v -0.639854 0.127275 2.400048
v -0.639854 0.127275 -2.400048
v -0.652390 0.000000 2.400048
v -0.652390 -0.000000 -2.400048
v -0.639854 -0.127275 2.400048
v -0.639854 -0.127275 -2.400048
v -0.602729 -0.249659 2.400048
v -0.602729 -0.249659 -2.400048
v -0.542442 -0.362448 2.400048
v -0.542442 -0.362448 -2.400048
v -0.461309 -0.461309 2.400048
v -0.461309 -0.461309 -2.400048
v -0.362448 -0.542442 2.400048
v -0.362448 -0.542442 -2.400048
v -0.249659 -0.602729 2.400048
v -0.249659 -0.602730 -2.400048
v -0.127275 -0.639854 2.400048
v -0.127275 -0.639854 -2.400048
v 0.083406 -0.419312 -3.659053
v 0.000000 -0.427527 -3.659053
v 0.163607 -0.394984 -3.659053
v 0.237521 -0.355476 -3.659053
v 0.302307 -0.302307 -3.659053
v 0.355476 -0.237521 -3.659053
v 0.394983 -0.163608 -3.659053
v 0.419312 -0.083407 -3.659053
v 0.427527 -0.000000 -3.659053
v 0.419312 0.083406 -3.659053
v 0.394983 0.163607 -3.659053
v 0.355476 0.237521 -3.659053
v 0.302307 0.302307 -3.659053
v 0.237521 0.355475 -3.659053
v 0.163607 0.394983 -3.659053
v 0.083406 0.419312 -3.659053
v 0.000000 0.427527 -3.659053
v -0.083406 0.419312 -3.659053
v -0.163607 0.394983 -3.659053
v -0.237521 0.355475 -3.659053
v -0.302307 0.302307 -3.659053
v -0.355476 0.237521 -3.659053
v -0.394983 0.163607 -3.659053
v -0.419312 0.083406 -3.659053
v -0.427527 -0.000000 -3.659053
v -0.419312 -0.083407 -3.659053
v -0.394983 -0.163608 -3.659053
v -0.355476 -0.237521 -3.659053
v -0.302307 -0.302307 -3.659053
v -0.237521 -0.355476 -3.659053
v -0.163607 -0.394984 -3.659053
v -0.083406 -0.419312 -3.659053
v 0.000000 -0.000000 -4.943782
v -0.147615 -0.356375 2.553372
v -0.214304 -0.320729 2.553372
v -0.272758 -0.272758 2.553372
v -0.320729 -0.214304 2.553372
v -0.356375 -0.147615 2.553372
v -0.378326 -0.075254 2.553372
v -0.385738 0.000000 2.553372
v -0.378326 0.075254 2.553372
v -0.356375 0.147616 2.553372
v -0.320729 0.214305 2.553372
v -0.272758 0.272758 2.553372
v -0.214304 0.320729 2.553372
v -0.147615 0.356375 2.553372
v -0.075254 0.378326 2.553372
v -0.000000 0.385738 2.553372
v 0.075254 0.378326 2.553372
v 0.147615 0.356375 2.553372
v 0.214304 0.320729 2.553372
v 0.272758 0.272758 2.553372
v 0.320729 0.214305 2.553372
v 0.356375 0.147616 2.553372
v 0.378326 0.075254 2.553372
v 0.385738 0.000000 2.553372
v 0.378326 -0.075254 2.553372
v 0.356375 -0.147615 2.553372
v 0.320729 -0.214304 2.553372
v 0.272758 -0.272758 2.553372
v 0.214304 -0.320729 2.553372
v 0.147615 -0.356375 2.553372
v 0.075254 -0.378326 2.553372
v -0.000000 -0.385738 2.553372
v -0.075254 -0.378326 2.553372
vn 0.0980 -0.9952 -0.0000
vn 0.2903 -0.9569 -0.0000
vn 0.4714 -0.8819 -0.0000
vn 0.6344 -0.7730 -0.0000
vn 0.7730 -0.6344 -0.0000
vn 0.8819 -0.4714 -0.0000
vn 0.9569 -0.2903 -0.0000
vn 0.9952 -0.0980 -0.0000
vn 0.9952 0.0980 -0.0000
vn 0.9569 0.2903 -0.0000
vn 0.8819 0.4714 -0.0000
vn 0.7730 0.6344 -0.0000
vn 0.6344 0.7730 -0.0000
vn 0.4714 0.8819 -0.0000
vn 0.2903 0.9569 -0.0000
vn 0.0980 0.9952 -0.0000
vn -0.0980 0.9952 -0.0000
vn -0.2903 0.9569 -0.0000
vn -0.4714 0.8819 -0.0000
vn -0.6344 0.7730 -0.0000
vn -0.7730 0.6344 -0.0000
vn -0.8819 0.4714 -0.0000
vn -0.9569 0.2903 -0.0000
vn -0.9952 0.0980 -0.0000
vn -0.9952 -0.0980 -0.0000
vn -0.9569 -0.2903 -0.0000
vn -0.8819 -0.4714 -0.0000
vn -0.7730 -0.6344 -0.0000
vn -0.6344 -0.7730 -0.0000
vn -0.4714 -0.8819 -0.0000
vn 0.9422 -0.2858 -0.1750
vn -0.2903 -0.9569 -0.0000
vn -0.0980 -0.9952 -0.0000
vn 0.3174 -0.3867 0.8659
vn -0.8372 0.4475 -0.3144
vn 0.0965 0.9798 -0.1750
vn -0.9798 -0.0965 -0.1750
vn 0.4641 -0.8683 -0.1750
vn 0.7611 0.6246 -0.1750
vn -0.7611 0.6246 -0.1750
vn -0.4641 -0.8683 -0.1750
vn 0.9798 -0.0965 -0.1750
vn -0.0965 0.9798 -0.1750
vn -0.9422 -0.2858 -0.1750
vn 0.6246 -0.7611 -0.1750
vn 0.6246 0.7611 -0.1750
vn -0.8683 0.4641 -0.1750
vn -0.2858 -0.9422 -0.1750
vn 0.9798 0.0965 -0.1750
vn -0.2858 0.9422 -0.1750
vn -0.8683 -0.4641 -0.1750
vn 0.7611 -0.6246 -0.1750
vn 0.4641 0.8683 -0.1750
vn -0.9422 0.2858 -0.1750
vn 0.0965 -0.9798 -0.1750
vn -0.0965 -0.9798 -0.1750
vn 0.9422 0.2858 -0.1750
vn -0.4641 0.8683 -0.1750
vn -0.7611 -0.6246 -0.1750
vn 0.8683 -0.4641 -0.1750
vn 0.2858 0.9422 -0.1750
vn -0.9798 0.0965 -0.1750
vn 0.2858 -0.9422 -0.1750
vn 0.8683 0.4641 -0.1750
vn -0.6246 0.7611 -0.1750
vn -0.6246 -0.7611 -0.1750
vn 0.4979 -0.0490 0.8659
vn 0.9447 0.0930 -0.3144
vn -0.9084 0.2756 -0.3144
vn 0.9084 0.2756 -0.3144
vn -0.9447 0.0930 -0.3144
vn 0.8372 0.4475 -0.3144
vn -0.9447 -0.0930 -0.3144
vn 0.7338 0.6022 -0.3144
vn -0.9084 -0.2756 -0.3144
vn 0.6022 0.7338 -0.3144
vn -0.8372 -0.4475 -0.3144
vn 0.4475 0.8372 -0.3144
vn 0.0930 -0.9447 -0.3144
vn -0.7338 -0.6022 -0.3144
vn 0.2756 0.9084 -0.3144
vn 0.2756 -0.9084 -0.3144
vn -0.6022 -0.7338 -0.3144
vn 0.0930 0.9447 -0.3144
vn 0.4475 -0.8372 -0.3144
vn -0.4475 -0.8372 -0.3144
vn -0.0930 0.9447 -0.3144
vn 0.6022 -0.7338 -0.3144
vn -0.2756 -0.9084 -0.3144
vn -0.2756 0.9084 -0.3144
vn 0.7338 -0.6022 -0.3144
vn -0.0930 -0.9447 -0.3144
vn -0.4475 0.8372 -0.3144
vn 0.8372 -0.4475 -0.3144
vn -0.6022 0.7338 -0.3144
vn 0.9084 -0.2756 -0.3144
vn -0.7338 0.6022 -0.3144
vn 0.9447 -0.0930 -0.3144
vn -0.2358 -0.4412 0.8659
vn -0.3867 0.3174 0.8659
vn 0.3867 0.3174 0.8659
vn 0.2358 -0.4412 0.8659
vn -0.4979 -0.0490 0.8659
vn 0.0490 0.4979 0.8659
vn 0.4787 -0.1452 0.8659
vn -0.3174 -0.3867 0.8659
vn -0.3174 0.3867 0.8659
vn 0.4412 0.2358 0.8659
vn 0.1452 -0.4787 0.8659
vn -0.4979 0.0490 0.8659
vn 0.1452 0.4787 0.8659
vn 0.4412 -0.2358 0.8659
vn -0.3867 -0.3174 0.8659
vn -0.2358 0.4412 0.8659
vn 0.4787 0.1452 0.8659
vn -0.0490 -0.4979 0.8659
vn 0.0490 -0.4979 0.8659
vn -0.4787 0.1452 0.8659
vn 0.2358 0.4412 0.8659
vn 0.3867 -0.3174 0.8659
vn -0.4412 -0.2358 0.8659
vn -0.1452 0.4787 0.8659
vn 0.4979 0.0490 0.8659
vn -0.1452 -0.4787 0.8659
vn -0.4412 0.2358 0.8659
vn 0.3174 0.3867 0.8659
vn -0.0000 -0.0000 1.0000
vn -0.0490 0.4979 0.8659
vn -0.4787 -0.1452 0.8659
vn -0.0001 -0.0000 1.0000
vn 0.0001 -0.0000 1.0000
vt 0.087854 0.702470
vt 0.077779 0.983181
vt 0.087854 0.275578
vt 0.116405 0.704442
vt 0.053575 0.967008
vt 0.116405 0.277550
vt 0.145515 0.704442
vt 0.032992 0.946425
vt 0.145515 0.277550
vt 0.174066 0.702470
vt 0.016819 0.922221
vt 0.174065 0.275578
vt 0.200960 0.698601
vt 0.005679 0.895326
vt 0.200960 0.271709
vt 0.225164 0.692984
vt 0.000000 0.866776
vt 0.225164 0.266092
vt 0.469837 0.685834
vt 0.245747 0.685835
vt 0.000000 0.837666
vt 0.245747 0.258943
vt 0.469837 0.258943
vt 0.490421 0.692984
vt 0.005679 0.809116
vt 0.490421 0.266092
vt 0.514625 0.698601
vt 0.016819 0.782221
vt 0.514625 0.271709
vt 0.541519 0.702470
vt 0.032992 0.758017
vt 0.541519 0.275578
vt 0.570070 0.704442
vt 0.053575 0.737434
vt 0.570070 0.277550
vt 0.599180 0.704442
vt 0.077779 0.721261
vt 0.599180 0.277550
vt 0.627730 0.702470
vt 0.104673 0.710121
vt 0.627730 0.275578
vt 0.654624 0.698601
vt 0.133224 0.704442
vt 0.654624 0.271709
vt 0.678828 0.705121
vt 0.678828 0.692984
vt 0.162334 0.704442
vt 0.678828 0.266092
vt 0.678828 0.259832
vt 0.703032 0.708483
vt 0.190884 0.710121
vt 0.703032 0.263194
vt 0.729926 0.710798
vt 0.217779 0.721261
vt 0.729926 0.265509
vt 0.758477 0.711978
vt 0.241982 0.737434
vt 0.758477 0.266689
vt 0.787587 0.711978
vt 0.262566 0.758018
vt 0.787587 0.266689
vt 0.816137 0.710798
vt 0.278739 0.782221
vt 0.816137 0.265509
vt 0.843032 0.708483
vt 0.289879 0.809116
vt 0.843032 0.263194
vt 0.245747 0.269808
vt 0.285931 0.670386
vt 0.867236 0.705121
vt 0.295558 0.837666
vt 0.867236 0.259832
vt 0.270255 0.276955
vt 0.313027 0.674902
vt 0.295558 0.866776
vt 0.297351 0.281471
vt 0.341668 0.676613
vt 0.289879 0.895327
vt 0.325992 0.283182
vt 0.370755 0.675454
vt 0.278739 0.922221
vt 0.355079 0.282023
vt 0.399170 0.671470
vt 0.262566 0.946425
vt 0.383493 0.278038
vt 0.425820 0.664812
vt 0.241982 0.967008
vt 0.410143 0.271381
vt 0.449681 0.655738
vt 0.217778 0.983181
vt 0.434005 0.262307
vt 0.000000 0.677428
vt 0.469837 0.644596
vt 0.190884 0.994321
vt 0.000000 0.250536
vt 0.454161 0.251165
vt 0.016173 0.685835
vt 0.162334 1.000000
vt 0.469837 0.238383
vt 0.016173 0.258943
vt 0.036756 0.692984
vt 0.133224 1.000000
vt 0.036756 0.266092
vt 0.060960 0.698601
vt 0.104673 0.994321
vt 0.060960 0.271709
vt 0.121422 0.147891
vt 0.102712 0.146599
vt 0.140498 0.147891
vt 0.159208 0.146599
vt 0.176832 0.144063
vt 0.192694 0.140382
vt 0.509402 0.135697
vt 0.206183 0.135697
vt 0.522891 0.140382
vt 0.538752 0.144063
vt 0.556377 0.146599
vt 0.575087 0.147891
vt 0.594163 0.147891
vt 0.612873 0.146599
vt 0.630497 0.144063
vt 0.646359 0.140382
vt 0.711298 0.134815
vt 0.727160 0.137018
vt 0.744784 0.138535
vt 0.763494 0.139309
vt 0.782570 0.139309
vt 0.801280 0.138535
vt 0.273289 0.145482
vt 0.818904 0.137018
vt 0.289350 0.150165
vt 0.307106 0.153125
vt 0.325875 0.154246
vt 0.344937 0.153487
vt 0.363557 0.150876
vt 0.381022 0.146513
vt 0.396659 0.140566
vt 0.409868 0.133265
vt 0.055737 0.135697
vt 0.420141 0.124888
vt 0.069226 0.140382
vt 0.085088 0.144063
vt 0.130960 0.000000
vt 0.773032 0.000000
vt 0.329275 0.000000
vt 0.584625 0.000000
vt 0.139173 0.939598
vt 0.156385 0.939598
vt 0.173266 0.936240
vt 0.189167 0.929654
vt 0.203479 0.920091
vt 0.215649 0.907921
vt 0.225211 0.893610
vt 0.231798 0.877708
vt 0.235156 0.860827
vt 0.235156 0.843615
vt 0.231798 0.826734
vt 0.225212 0.810833
vt 0.215649 0.796521
vt 0.203479 0.784351
vt 0.189167 0.774788
vt 0.173266 0.768202
vt 0.156385 0.764844
vt 0.139173 0.764844
vt 0.122292 0.768202
vt 0.106390 0.774788
vt 0.092079 0.784351
vt 0.079909 0.796521
vt 0.070346 0.810832
vt 0.063760 0.826734
vt 0.060402 0.843615
vt 0.060402 0.860827
vt 0.063760 0.877708
vt 0.070346 0.893610
vt 0.079909 0.907921
vt 0.092079 0.920091
vt 0.106390 0.929654
vt 0.122292 0.936240
s 0
usemtl マテリアル
f 2/3/1 3/4/1 1/1/1
f 4/6/2 5/7/2 3/4/2
f 6/9/3 7/10/3 5/7/3
f 8/12/4 9/13/4 7/10/4
f 10/15/5 11/16/5 9/13/5
f 12/18/6 13/20/6 11/16/6
f 14/23/7 15/24/7 13/19/7
f 16/26/8 17/27/8 15/24/8
f 18/29/9 19/30/9 17/27/9
f 20/32/10 21/33/10 19/30/10
f 22/35/11 23/36/11 21/33/11
f 24/38/12 25/39/12 23/36/12
f 26/41/13 27/42/13 25/39/13
f 28/44/14 29/46/14 27/42/14
f 30/49/15 31/50/15 29/45/15
f 32/52/16 33/53/16 31/50/16
f 34/55/17 35/56/17 33/53/17
f 36/58/18 37/59/18 35/56/18
f 38/61/19 39/62/19 37/59/19
f 40/64/20 41/65/20 39/62/20
f 42/67/21 43/70/21 41/65/21
f 44/73/22 45/74/22 43/69/22
f 46/76/23 47/77/23 45/74/23
f 48/79/24 49/80/24 47/77/24
f 50/82/25 51/83/25 49/80/25
f 52/85/26 53/86/26 51/83/26
f 54/88/27 55/89/27 53/86/27
f 56/91/28 57/93/28 55/89/28
f 58/95/29 59/97/29 57/92/29
f 60/100/30 61/101/30 59/97/30
f 14/23/31 72/115/31 16/26/31
f 62/103/32 63/104/32 61/101/32
f 64/106/33 1/1/33 63/104/33
f 7/11/34 124/173/34 125/174/34
f 87/132/35 86/131/35 97/145/35
f 32/52/36 81/125/36 34/55/36
f 50/82/37 90/135/37 52/85/37
f 8/12/38 67/109/38 68/110/38
f 24/38/39 77/120/39 26/41/39
f 44/73/40 85/129/40 86/131/40
f 60/100/41 95/141/41 62/103/41
f 18/29/42 72/115/42 73/116/42
f 34/55/43 82/126/43 36/58/43
f 52/85/44 91/136/44 54/88/44
f 8/12/45 69/111/45 10/15/45
f 28/44/46 77/120/46 78/121/46
f 44/73/47 87/132/47 46/76/47
f 62/103/48 96/142/48 64/106/48
f 20/32/49 73/116/49 74/117/49
f 38/61/50 82/126/50 83/127/50
f 54/88/51 92/137/51 56/91/51
f 10/15/52 70/112/52 12/18/52
f 28/44/53 79/122/53 30/48/53
f 46/76/54 88/133/54 48/79/54
f 4/6/55 66/108/55 65/107/55
f 64/106/56 66/108/56 2/3/56
f 20/32/57 75/118/57 22/35/57
f 40/64/58 83/127/58 84/128/58
f 56/91/59 93/138/59 58/96/59
f 12/18/60 71/114/60 14/22/60
f 30/49/61 80/124/61 32/52/61
f 48/79/62 89/134/62 50/82/62
f 4/6/63 67/109/63 6/9/63
f 22/35/64 76/119/64 24/38/64
f 40/64/65 85/130/65 42/67/65
f 58/96/66 94/140/66 60/99/66
f 17/28/67 121/170/67 15/25/67
f 74/117/68 73/116/68 97/146/68
f 88/133/69 87/132/69 97/145/69
f 75/118/70 74/117/70 97/146/70
f 89/134/71 88/133/71 97/145/71
f 76/119/72 75/118/72 97/146/72
f 90/135/73 89/134/73 97/145/73
f 77/120/74 76/119/74 97/146/74
f 91/136/75 90/135/75 97/145/75
f 78/121/76 77/120/76 97/146/76
f 92/137/77 91/136/77 97/145/77
f 79/122/78 78/121/78 97/146/78
f 65/107/79 66/108/79 97/143/79
f 93/138/80 92/137/80 97/145/80
f 80/124/81 79/123/81 97/144/81
f 67/109/82 65/107/82 97/143/82
f 94/140/83 93/138/83 97/145/83
f 81/125/84 80/124/84 97/144/84
f 68/110/85 67/109/85 97/143/85
f 95/141/86 94/139/86 97/143/86
f 82/126/87 81/125/87 97/144/87
f 69/111/88 68/110/88 97/143/88
f 96/142/89 95/141/89 97/143/89
f 83/127/90 82/126/90 97/144/90
f 70/112/91 69/111/91 97/143/91
f 66/108/92 96/142/92 97/143/92
f 84/128/93 83/127/93 97/144/93
f 71/114/94 70/112/94 97/143/94
f 85/130/95 84/128/95 97/144/95
f 72/115/96 71/113/96 97/146/96
f 86/131/97 85/129/97 97/145/97
f 73/116/98 72/115/98 97/146/98
f 59/98/99 98/147/99 99/148/99
f 43/71/100 108/157/100 41/66/100
f 25/40/101 117/166/101 23/37/101
f 7/11/102 126/175/102 5/8/102
f 51/84/103 104/153/103 49/81/103
f 33/54/104 113/162/104 31/51/104
f 15/25/105 122/171/105 13/21/105
f 59/98/106 100/149/106 57/94/106
f 41/66/107 109/158/107 39/63/107
f 23/37/108 118/167/108 21/34/108
f 3/5/109 126/175/109 127/176/109
f 47/78/110 104/153/110 105/154/110
f 31/51/111 114/163/111 29/47/111
f 11/17/112 122/171/112 123/172/112
f 57/94/113 101/150/113 55/90/113
f 39/63/114 110/159/114 37/60/114
f 19/31/115 118/167/115 119/168/115
f 63/105/116 128/177/116 129/178/116
f 3/5/117 128/177/117 1/2/117
f 47/78/118 106/155/118 45/75/118
f 27/43/119 114/163/119 115/164/119
f 11/17/120 124/173/120 9/14/120
f 55/90/121 102/151/121 53/87/121
f 35/57/122 110/159/122 111/160/122
f 19/31/123 120/169/123 17/28/123
f 63/105/124 98/147/124 61/102/124
f 43/71/125 106/155/125 107/156/125
f 27/43/126 116/165/126 25/40/126
f 113/162/127 105/154/127 129/178/127
f 35/57/128 112/161/128 33/54/128
f 51/84/129 102/151/129 103/152/129
f 2/3/1 4/6/1 3/4/1
f 4/6/2 6/9/2 5/7/2
f 6/9/3 8/12/3 7/10/3
f 8/12/4 10/15/4 9/13/4
f 10/15/5 12/18/5 11/16/5
f 12/18/6 14/22/6 13/20/6
f 14/23/7 16/26/7 15/24/7
f 16/26/8 18/29/8 17/27/8
f 18/29/9 20/32/9 19/30/9
f 20/32/10 22/35/10 21/33/10
f 22/35/11 24/38/11 23/36/11
f 24/38/12 26/41/12 25/39/12
f 26/41/13 28/44/13 27/42/13
f 28/44/14 30/48/14 29/46/14
f 30/49/15 32/52/15 31/50/15
f 32/52/16 34/55/16 33/53/16
f 34/55/17 36/58/17 35/56/17
f 36/58/18 38/61/18 37/59/18
f 38/61/19 40/64/19 39/62/19
f 40/64/20 42/67/20 41/65/20
f 42/67/21 44/72/21 43/70/21
f 44/73/22 46/76/22 45/74/22
f 46/76/23 48/79/23 47/77/23
f 48/79/24 50/82/24 49/80/24
f 50/82/25 52/85/25 51/83/25
f 52/85/26 54/88/26 53/86/26
f 54/88/27 56/91/27 55/89/27
f 56/91/28 58/96/28 57/93/28
f 58/95/29 60/100/29 59/97/29
f 60/100/30 62/103/30 61/101/30
f 14/23/31 71/113/31 72/115/31
f 62/103/32 64/106/32 63/104/32
f 64/106/33 2/3/33 1/1/33
f 7/11/34 9/14/34 124/173/34
f 32/52/36 80/124/36 81/125/36
f 50/82/37 89/134/37 90/135/37
f 8/12/38 6/9/38 67/109/38
f 24/38/39 76/119/39 77/120/39
f 44/73/40 42/68/40 85/129/40
f 60/100/41 94/139/41 95/141/41
f 18/29/42 16/26/42 72/115/42
f 34/55/43 81/125/43 82/126/43
f 52/85/44 90/135/44 91/136/44
f 8/12/45 68/110/45 69/111/45
f 28/44/46 26/41/46 77/120/46
f 44/73/47 86/131/47 87/132/47
f 62/103/48 95/141/48 96/142/48
f 20/32/49 18/29/49 73/116/49
f 38/61/50 36/58/50 82/126/50
f 54/88/51 91/136/51 92/137/51
f 10/15/52 69/111/52 70/112/52
f 28/44/53 78/121/53 79/122/53
f 46/76/54 87/132/54 88/133/54
f 4/6/55 2/3/55 66/108/55
f 64/106/56 96/142/56 66/108/56
f 20/32/57 74/117/57 75/118/57
f 40/64/58 38/61/58 83/127/58
f 56/91/59 92/137/59 93/138/59
f 12/18/60 70/112/60 71/114/60
f 30/49/61 79/123/61 80/124/61
f 48/79/62 88/133/62 89/134/62
f 4/6/63 65/107/63 67/109/63
f 22/35/64 75/118/64 76/119/64
f 40/64/65 84/128/65 85/130/65
f 58/96/66 93/138/66 94/140/66
f 17/28/67 120/169/67 121/170/67
f 59/98/99 61/102/99 98/147/99
f 43/71/100 107/156/100 108/157/100
f 25/40/101 116/165/101 117/166/101
f 7/11/102 125/174/102 126/175/102
f 51/84/103 103/152/103 104/153/103
f 33/54/104 112/161/104 113/162/104
f 15/25/105 121/170/105 122/171/105
f 59/98/106 99/148/106 100/149/106
f 41/66/107 108/157/107 109/158/107
f 23/37/108 117/166/108 118/167/108
f 3/5/109 5/8/109 126/175/109
f 47/78/110 49/81/110 104/153/110
f 31/51/111 113/162/111 114/163/111
f 11/17/112 13/21/112 122/171/112
f 57/94/113 100/149/113 101/150/113
f 39/63/114 109/158/114 110/159/114
f 19/31/115 21/34/115 118/167/115
f 63/105/116 1/2/116 128/177/116
f 3/5/117 127/176/117 128/177/117
f 47/78/118 105/154/118 106/155/118
f 27/43/119 29/47/119 114/163/119
f 11/17/120 123/172/120 124/173/120
f 55/90/121 101/150/121 102/151/121
f 35/57/122 37/60/122 110/159/122
f 19/31/123 119/168/123 120/169/123
f 63/105/124 129/178/124 98/147/124
f 43/71/125 45/75/125 106/155/125
f 27/43/126 115/164/126 116/165/126
f 129/178/127 128/177/127 127/176/127
f 127/176/127 126/175/127 125/174/127
f 125/174/127 124/173/127 123/172/127
f 123/172/127 122/171/127 121/170/127
f 121/170/130 120/169/130 119/168/130
f 119/168/131 118/167/131 117/166/131
f 117/166/127 116/165/127 113/162/127
f 116/165/127 115/164/127 113/162/127
f 115/164/127 114/163/127 113/162/127
f 113/162/127 112/161/127 111/160/127
f 111/160/127 110/159/127 109/158/127
f 109/158/127 108/157/127 107/156/127
f 107/156/130 106/155/130 105/154/130
f 105/154/131 104/153/131 103/152/131
f 103/152/127 102/151/127 101/150/127
f 101/150/127 100/149/127 99/148/127
f 99/148/127 98/147/127 129/178/127
f 129/178/127 127/176/127 125/174/127
f 125/174/127 123/172/127 121/170/127
f 121/170/127 119/168/127 117/166/127
f 113/162/127 111/160/127 109/158/127
f 109/158/127 107/156/127 113/162/127
f 107/156/127 105/154/127 113/162/127
f 105/154/127 103/152/127 101/150/127
f 101/150/127 99/148/127 129/178/127
f 129/178/127 125/174/127 121/170/127
f 121/170/127 117/166/127 129/178/127
f 117/166/127 113/162/127 129/178/127
f 105/154/127 101/150/127 129/178/127
f 35/57/128 111/160/128 112/161/128
f 51/84/129 53/87/129 102/151/129
